<svg width="68px" height="50px" id="Layer_1" data-name="Layer 1" xmlns="http://www.w3.org/2000/svg" viewBox="0 0 68 50"><defs><style>.cls-1{fill:#fff;fill-rule:evenodd;}</style></defs><title>bars-icon-white</title><g id="Page-1"><g id="Concept-2-Copy-2"><g id="Group-2"><path id="Rectangle" class="cls-1" d="M8.85,27.78h0a8.85,8.85,0,0,1,8.85,8.85v4.52A8.85,8.85,0,0,1,8.85,50h0A8.85,8.85,0,0,1,0,41.15V36.63A8.85,8.85,0,0,1,8.85,27.78Z"/><path id="Rectangle-Copy" class="cls-1" d="M34,13.89h0a8.85,8.85,0,0,1,8.85,8.85V41.15A8.85,8.85,0,0,1,34,50h0a8.85,8.85,0,0,1-8.85-8.85V22.74A8.85,8.85,0,0,1,34,13.89Z"/><path id="Rectangle-Copy-2" class="cls-1" d="M59.15,0h0A8.85,8.85,0,0,1,68,8.85v32.3A8.85,8.85,0,0,1,59.15,50h0a8.85,8.85,0,0,1-8.85-8.85V8.85A8.85,8.85,0,0,1,59.15,0Z"/></g></g></g></svg>
