<svg xmlns="http://www.w3.org/2000/svg" viewBox="0 0 79.98 49.53"><g id="Layer_2" data-name="Layer 2"><g id="Layer_1-2" data-name="Layer 1"><g id="Page-1"><g id="Concept-2-Copy-2"><g id="Group-5-Copy"><g id="Rectangle-Copy-4"><path d="M52.25,10.58h0A10.58,10.58,0,0,1,41.67,21.15H10.58A10.58,10.58,0,0,1,0,10.58H0A10.58,10.58,0,0,1,10.58,0H41.67A10.58,10.58,0,0,1,52.25,10.58Z" style="fill:#2e2e2e;fill-rule:evenodd"/></g><g id="Rectangle-Copy-5"><path d="M68.46,39h0A10.58,10.58,0,0,1,57.88,49.53H35.8A10.58,10.58,0,0,1,25.22,39h0A10.58,10.58,0,0,1,35.8,28.38H57.88A10.58,10.58,0,0,1,68.46,39Z" style="fill:#929292;fill-rule:evenodd"/></g><g id="Path-3"><polygon points="14.89 12.76 14.89 30.84 33.82 12.76 14.89 12.76" style="fill:#2e2e2e;fill-rule:evenodd"/></g><g id="Path-3-Copy"><polygon points="58.56 37.43 58.56 19.35 39.63 37.43 58.56 37.43" style="fill:#929292;fill-rule:evenodd"/></g></g></g><polygon points="79.98 7.05 73.19 7.05 73.19 0.26 69.19 0.26 69.19 7.05 62.4 7.05 62.4 11.05 69.19 11.05 69.19 17.84 73.19 17.84 73.19 11.05 79.98 11.05 79.98 7.05" style="fill:#2e2e2e"/></g></g></g></svg>