<svg xmlns="http://www.w3.org/2000/svg" viewBox="0 0 91.44 50"><g id="Layer_2" data-name="Layer 2"><g id="Layer_1-2" data-name="Layer 1"><g id="Page-1"><g id="Concept-2-Copy-2"><g id="Group-2"><path id="Rectangle" d="M8.85,27.78h0a8.85,8.85,0,0,1,8.85,8.85v4.52A8.85,8.85,0,0,1,8.85,50h0A8.85,8.85,0,0,1,0,41.15V36.63A8.85,8.85,0,0,1,8.85,27.78Z" style="fill:#959595;fill-rule:evenodd"/><path id="Rectangle-Copy" d="M34,13.89h0a8.85,8.85,0,0,1,8.85,8.85V41.15A8.85,8.85,0,0,1,34,50h0a8.85,8.85,0,0,1-8.85-8.85V22.74A8.85,8.85,0,0,1,34,13.89Z" style="fill:#767676;fill-rule:evenodd"/><path id="Rectangle-Copy-2" d="M58.74,0h0a8.85,8.85,0,0,1,8.85,8.85v32.3A8.85,8.85,0,0,1,58.74,50h0a8.85,8.85,0,0,1-8.85-8.85V8.85A8.85,8.85,0,0,1,58.74,0Z" style="fill:#606060;fill-rule:evenodd"/></g></g><path d="M91.44,10.79H84.65v6.79h-4V10.79H73.86v-4h6.79V0h4V6.79h6.79Z" style="fill:#606060"/></g></g></g></svg>