<?xml version="1.0" encoding="UTF-8"?>
<svg width="70px" height="50px" viewBox="0 0 70 50" version="1.1" xmlns="http://www.w3.org/2000/svg" xmlns:xlink="http://www.w3.org/1999/xlink">
    <!-- Generator: Sketch 51.3 (57544) - http://www.bohemiancoding.com/sketch -->
    <title>Group 5 Copy</title>
    <desc>Created with Sketch.</desc>
    <defs></defs>
    <g id="Page-1" stroke="none" stroke-width="1" fill="none" fill-rule="evenodd">
        <g id="Concept-2-Copy-2" transform="translate(-154.000000, -2502.000000)">
            <g id="Group-5-Copy" transform="translate(154.000000, 2502.000000)">
                <path d="M27.0236613,-15.3128493 L27.0236613,-15.3128493 C32.8651346,-15.3128493 37.6005843,-10.5773995 37.6005843,-4.73592617 L37.6005843,26.3559728 C37.6005843,32.1974461 32.8651346,36.9328959 27.0236613,36.9328959 L27.0236613,36.9328959 C21.182188,36.9328959 16.4467382,32.1974461 16.4467382,26.3559728 L16.4467382,-4.73592617 C16.4467382,-10.5773995 21.182188,-15.3128493 27.0236613,-15.3128493 Z" id="Rectangle-Copy-4" fill="#995499" transform="translate(27.023661, 10.810023) rotate(-270.000000) translate(-27.023661, -10.810023) "></path>
                <path d="M47.7418016,17.5710477 L47.7418016,17.5710477 C53.5832749,17.5710477 58.3187247,22.3064974 58.3187247,28.1479708 L58.3187247,50.2319826 C58.3187247,56.0734559 53.5832749,60.8089057 47.7418016,60.8089057 L47.7418016,60.8089057 C41.9003283,60.8089057 37.1648785,56.0734559 37.1648785,50.2319826 L37.1648785,28.1479708 C37.1648785,22.3064974 41.9003283,17.5710477 47.7418016,17.5710477 Z" id="Rectangle-Copy-5" fill="#E0CCE0" transform="translate(47.741802, 39.189977) rotate(-270.000000) translate(-47.741802, -39.189977) "></path>
                <polygon id="Path-3" fill="#995499" points="15.7937114 12.9929478 15.7937114 31.0776219 34.7181914 12.9929478"></polygon>
                <polygon id="Path-3-Copy" fill="#E0CCE0" transform="translate(49.997732, 28.622757) rotate(-180.000000) translate(-49.997732, -28.622757) " points="40.5354919 19.5804196 40.5354919 37.6650937 59.4599719 19.5804196"></polygon>
            </g>
        </g>
    </g>
</svg>