<svg width="70px" height="50px" id="Layer_1" data-name="Layer 1" xmlns="http://www.w3.org/2000/svg" viewBox="0 0 68.46 49.53"><defs><style>.cls-1{fill:#fff;fill-rule:evenodd;}</style></defs><title>chats-icon-white</title><g id="Page-1"><g id="Concept-2-Copy-2"><g id="Group-5-Copy"><path id="Rectangle-Copy-4" class="cls-1" d="M53.15,10.81h0A10.58,10.58,0,0,1,42.57,21.39H11.48A10.58,10.58,0,0,1,.9,10.81h0A10.58,10.58,0,0,1,11.48.23H42.57A10.58,10.58,0,0,1,53.15,10.81Z" transform="translate(-0.9 -0.23)"/><path id="Rectangle-Copy-5" class="cls-1" d="M69.36,39.19h0A10.58,10.58,0,0,1,58.78,49.77H36.7A10.58,10.58,0,0,1,26.12,39.19h0A10.58,10.58,0,0,1,36.7,28.61H58.78A10.58,10.58,0,0,1,69.36,39.19Z" transform="translate(-0.9 -0.23)"/><polygon id="Path-3" class="cls-1" points="14.89 12.76 14.89 30.84 33.82 12.76 14.89 12.76"/><polygon id="Path-3-Copy" class="cls-1" points="58.56 37.43 58.56 19.35 39.63 37.43 58.56 37.43"/></g></g></g></svg>
