<?xml version="1.0" encoding="utf-8"?>
<!-- Generator: Adobe Illustrator 24.0.3, SVG Export Plug-In . SVG Version: 6.00 Build 0)  -->
<svg version="1.1" id="Layer_1" xmlns="http://www.w3.org/2000/svg" xmlns:xlink="http://www.w3.org/1999/xlink" x="0px" y="0px"
	 viewBox="0 0 70 50" style="enable-background:new 0 0 70 50;" xml:space="preserve">
<style type="text/css">
	.st0{fill-rule:evenodd;clip-rule:evenodd;fill:#313131;}
	.st1{fill-rule:evenodd;clip-rule:evenodd;fill:#949494;}
</style>
<title>Group 5 Copy</title>
<desc>Created with Sketch.</desc>
<g id="Page-1">
	<g id="Concept-2-Copy-2" transform="translate(-154.000000, -2502.000000)">
		<g id="Group-5-Copy" transform="translate(154.000000, 2502.000000)">
			<path id="Rectangle-Copy-4" class="st0" d="M53.1,10.8L53.1,10.8c0,5.8-4.7,10.6-10.6,10.6H11.5c-5.8,0-10.6-4.7-10.6-10.6l0,0
				C0.9,5,5.6,0.2,11.5,0.2h31.1C48.4,0.2,53.1,5,53.1,10.8z"/>
			<path id="Rectangle-Copy-5" class="st1" d="M69.4,39.2L69.4,39.2c0,5.8-4.7,10.6-10.6,10.6H36.7c-5.8,0-10.6-4.7-10.6-10.6l0,0
				c0-5.8,4.7-10.6,10.6-10.6h22.1C64.6,28.6,69.4,33.3,69.4,39.2z"/>
			<polygon id="Path-3" class="st0" points="15.8,13 15.8,31.1 34.7,13 			"/>
			<polygon id="Path-3-Copy" class="st1" points="59.5,37.7 59.5,19.6 40.5,37.7 			"/>
		</g>
	</g>
</g>
</svg>
