<svg xmlns="http://www.w3.org/2000/svg" viewBox="0 0 91.44 49.9"><g id="Layer_2" data-name="Layer 2"><g id="Layer_1-2" data-name="Layer 1"><g id="Page-1"><g id="Concept-2-Copy-2"><g id="Group-2"><path id="Rectangle" d="M8.8,27.8h0a8.81,8.81,0,0,1,8.8,8.8v4.5a8.81,8.81,0,0,1-8.8,8.8h0A8.73,8.73,0,0,1,0,41.2V36.7A8.83,8.83,0,0,1,8.8,27.8Z" style="fill:#edc4c3;fill-rule:evenodd"/><path id="Rectangle-Copy" d="M34,13.9h0a8.81,8.81,0,0,1,8.8,8.8V41.1A8.81,8.81,0,0,1,34,49.9h0a8.81,8.81,0,0,1-8.8-8.8V22.7A8.81,8.81,0,0,1,34,13.9Z" style="fill:#e2807d;fill-rule:evenodd"/><path id="Rectangle-Copy-2" d="M59.2,0h0A8.88,8.88,0,0,1,68,8.8V41.1a8.81,8.81,0,0,1-8.8,8.8h0a8.81,8.81,0,0,1-8.8-8.8V8.8A8.75,8.75,0,0,1,59.2,0Z" style="fill:#d43c31;fill-rule:evenodd"/></g></g><path d="M91.44,10.79H84.65v6.79h-4V10.79H73.86v-4h6.79V0h4V6.79h6.79Z" style="fill:#d43c31"/></g></g></g></svg>