<svg id="Layer_1" data-name="Layer 1" xmlns="http://www.w3.org/2000/svg" viewBox="0 0 91.44 50"><g id="Layer_2" data-name="Layer 2"><g id="Layer_28" data-name="Layer 28"><g id="Page-1"><g id="Concept-2-Copy-2"><g id="Group-7-Copy"><path id="Triangle-Copy" d="M41.09,6.15l1.5-2.8a5.86,5.86,0,0,1,7.8-2.6A6.51,6.51,0,0,1,53,3.35l19.1,38.1a5.83,5.83,0,0,1-2.6,7.8h0a5.83,5.83,0,0,1-2.6.6h-3.1" style="fill:#b5d1dd;fill-rule:evenodd"/><path id="Triangle" d="M37.49,20.15l14.9,29.7H24.89a6.72,6.72,0,0,1-6.8-6.7v-.1a6.3,6.3,0,0,1,.7-3l10-19.9a4.76,4.76,0,0,1,6.3-2.2c.1,0,.1.1.2.1A4.1,4.1,0,0,1,37.49,20.15Z" style="fill:#176e99;fill-rule:evenodd"/></g></g></g></g><path d="M82.07,10.94H75.28v6.79h-4V10.94H64.49v-4h6.79V.15h4V6.94h6.79Z" style="fill:#176e99"/></g></svg>