<svg xmlns="http://www.w3.org/2000/svg" viewBox="0 0 63.98 49.7"><g id="Layer_2" data-name="Layer 2"><g id="Layer_1-2" data-name="Layer 1"><g id="Layer_2-2" data-name="Layer 2"><g id="Layer_28" data-name="Layer 28"><g id="Page-1"><g id="Concept-2-Copy-2"><g id="Group-7-Copy"><path id="Triangle-Copy" d="M23,6l1.5-2.8A5.86,5.86,0,0,1,32.3.6a6.51,6.51,0,0,1,2.6,2.6L54,41.3a5.83,5.83,0,0,1-2.6,7.8h0a5.83,5.83,0,0,1-2.6.6H45.7" style="fill:#888;fill-rule:evenodd"/><path id="Triangle" d="M19.4,20,34.3,49.7H6.8A6.72,6.72,0,0,1,0,43v-.1a6.3,6.3,0,0,1,.7-3L10.7,20A4.76,4.76,0,0,1,17,17.8c.1,0,.1.1.2.1A4.1,4.1,0,0,1,19.4,20Z" style="fill:#161616;fill-rule:evenodd"/></g></g></g></g><path d="M64,10.79H57.19v6.79h-4V10.79H46.4v-4h6.79V0h4V6.79H64Z" style="fill:#161616"/></g></g></g></svg>