<?xml version="1.0" encoding="utf-8"?>
<!-- Generator: Adobe Illustrator 24.0.3, SVG Export Plug-In . SVG Version: 6.00 Build 0)  -->
<svg version="1.1" id="Layer_1" xmlns="http://www.w3.org/2000/svg" xmlns:xlink="http://www.w3.org/1999/xlink" x="0px" y="0px"
	 viewBox="0 0 68 50" style="enable-background:new 0 0 68 50;" xml:space="preserve">
<style type="text/css">
	.st0{fill-rule:evenodd;clip-rule:evenodd;fill:#808080;}
	.st1{fill-rule:evenodd;clip-rule:evenodd;fill:#626262;}
	.st2{fill-rule:evenodd;clip-rule:evenodd;fill:#4B4B4B;}
</style>
<title>Group 2</title>
<desc>Created with Sketch.</desc>
<g id="Page-1">
	<g id="Concept-2-Copy-2" transform="translate(-560.000000, -2498.000000)">
		<g id="Group-2" transform="translate(560.000000, 2498.000000)">
			<path id="Rectangle" class="st0" d="M8.8,27.8L8.8,27.8c4.9,0,8.8,4,8.8,8.8v4.5c0,4.9-4,8.8-8.8,8.8l0,0C4,50,0,46,0,41.2v-4.5
				C0,31.7,4,27.8,8.8,27.8z"/>
			<path id="Rectangle-Copy" class="st1" d="M34,13.9L34,13.9c4.9,0,8.8,4,8.8,8.8v18.4c0,4.9-4,8.8-8.8,8.8h0c-4.9,0-8.8-4-8.8-8.8
				V22.7C25.2,17.9,29.1,13.9,34,13.9z"/>
			<path id="Rectangle-Copy-2" class="st2" d="M59.2,0L59.2,0C64,0,68,4,68,8.8v32.3c0,4.9-4,8.8-8.8,8.8l0,0c-4.9,0-8.8-4-8.8-8.8
				V8.8C50.3,4,54.3,0,59.2,0z"/>
		</g>
	</g>
</g>
</svg>
