<?xml version="1.0" encoding="utf-8"?>
<!-- Generator: Adobe Illustrator 24.0.3, SVG Export Plug-In . SVG Version: 6.00 Build 0)  -->
<svg version="1.1" id="Layer_1" xmlns="http://www.w3.org/2000/svg" xmlns:xlink="http://www.w3.org/1999/xlink" x="0px" y="0px"
	 viewBox="0 0 320 368" style="enable-background:new 0 0 320 368;" xml:space="preserve">
<style type="text/css">
	.st0{fill:none;stroke:#292933;stroke-width:2;stroke-linecap:round;stroke-linejoin:round;stroke-miterlimit:10;}
	.st1{display:none;fill:#292933;}
	.st2{fill:#292933;}
</style>
<g>
	<path class="st0" d="M70.6,364.4c0.5,0.3,1,0.7,1.5,1"/>
	<path class="st0" d="M53.1,349.5c3.2,3.7,6.7,7,11.3,10.5c0.7,0.5,1.4,1.1,2.1,1.6"/>
	<path class="st0" d="M241.6,113.6C223.4,169,90,232.7,51.9,292.2"/>
	<path class="st0" d="M267.6,23c-29,14.1-52.7,33.4-34.3,53.7"/>
	<path class="st0" d="M286.4,14.5c-1.8,0.8-3.6,1.5-5.3,2.3"/>
	<path class="st0" d="M315.4,2.4c-3.4,1.4-6.7,2.8-10.1,4.2"/>
</g>
<image style="display:none;overflow:visible;" width="2400" height="2400" xlink:href="general-electric-black-logo-png-transparent.png"  transform="matrix(1.787335e-02 0 0 1.787335e-02 20.204 299.0599)">
</image>
<image style="display:none;overflow:visible;" width="1225" height="180" xlink:href="1280px-Southwest_Airlines_logo_2014.svg.png"  transform="matrix(7.389455e-02 0 0 7.389455e-02 188.0792 86.4006)">
</image>
<g>
	<g id="g10_1_" transform="matrix(1, 0, 0, 1, 0, 0)">
		<g id="g12_1_" transform="scale(0.1,0.1)">
			<path id="path14_1_" class="st1" d="M462.7,3411.6c111.3,0,201.5-90.2,201.5-201.5c0-111.3-90.2-201.5-201.5-201.5
				c-111.3,0-201.5,90.2-201.5,201.5C261.2,3321.4,351.4,3411.6,462.7,3411.6"/>
			<path id="path16_1_" class="st2" d="M507.9,3157.6c0-22.9,15.5-45.1,24-41C541.5,3121.5,524.7,3143.1,507.9,3157.6 M402.4,3166
				c0-18.4,18.2-53.4,29.3-49.7C444.8,3120.6,420.8,3155.9,402.4,3166 M384,3297.7c-8.4,0.4-13.9-5-13.9-13.9
				c0-24,33.3-46.9,58.4-59.2C424,3258.1,412.7,3296.4,384,3297.7 M537.5,3219.6c-19,0-33.5,14-33.5,30.7c0,14,8.4,25.1,19.5,25.1
				c3.9,0,7.8-2.2,7.8-7.2c0-7.3-9.6-9-8.9-19.9c0.5-7.2,7.2-11.9,13.9-11.9c13.4,0,19.6,13,19.6,26.4c-0.5,20.7-15.8,35-33.6,35
				c-23.5,0-38.5-22.3-38.5-46.3c0-35.7,23.5-49.7,35.7-53c0.1,0,32.1,5.7,31.1-8.4c-0.5-6.2-9.7-8.6-16.3-8.8
				c-7.4-0.3-14.9,2.4-14.9,2.4c-3.9-2-6.6-5.8-8.2-10.3c22.9-17.3,39.1-34.1,39.1-53c0-10-6.7-19-19.6-19
				c-22.9,0-40.2,29-40.2,55.3c0,4.4,0,8.9,1.2,12.8c-14.5,10.6-25.3,17.2-44.8,28.9c0-2.4,0.5-8.8,2.2-16.9
				c6.7-7.3,15.9-18.1,15.9-26.5c0-3.9-2.2-7.3-6.7-7.3c-11.1,0-19.5,16.8-21.7,28.5c-5,6.2-15.1,14-23.5,14c-6.7,0-8.9-6.1-9.5-8.4
				c21.2-7.3,47.5-36.3,47.5-62.5c0-5.6-2.2-17.9-19-17.9c-25.1,0-46.3,37.4-46.3,66.4c-9,0-12.3-9.5-12.3-16.7
				c0-7.3,2.8-14.5,2.8-16.7c0-2.2-1.1-5-4.5-5c-8.4,0-13.4,11.2-13.4,24c0.6,17.9,12.3,29.1,27.9,30.2
				c2.2,10.6,11.7,20.7,23.4,20.7c7.3,0,16.2-2.2,22.3-7.8c-0.5,3.9-1.1,7.3-1.7,10.6c-24.6,12.9-42.4,21.8-58.6,36.3
				c-12.8,11.7-20.1,27.4-20.1,39.6c0,16.8,10.6,32.4,32.4,32.4c25.7,0,45.2-20.6,54.7-49.1c4.4-13.4,6.2-32.9,7.4-50.8
				c25.6-14.5,37.8-22.9,51.2-32.4c1.7,2.8,3.4,5,5.6,6.7c-11.7,6.1-39.6,23.5-39.6,64.2c0,29,19.5,61.4,58.1,61.4
				c31.8,0,53.6-26.2,53.6-51.4C574.9,3240.8,562.1,3219.6,537.5,3219.6 M633.5,3267.5c-0.1,0.2-0.4,0.4-1,0.2
				c-0.5-0.2-0.6-0.4-0.6-0.7c0-0.3,6.7-20.2,6.7-42.9c-0.1-24.6-10-39.7-22.8-39.7c-7.8,0-13.4,5.6-13.4,14
				c0,15.1,18.4,16.2,18.4,49.1c0,13.4-2.8,26.2-7.2,40.2c-20.7,69.8-86.5,102.2-150.7,102.2c-29.6,0-50.6-6.1-56.9-8.9
				c-0.3-0.1-0.5-0.6-0.3-1.1c0.1-0.4,0.6-0.7,0.8-0.5c2.5,1,20.6,6.7,42.9,6.7c24.6,0,39.1-10,39.1-22.3c0-7.8-6.1-13.9-13.9-13.9
				c-15.1,0-16.2,19-48.6,19c-13.9,0-26.2-2.8-40.7-7.3c-69.2-21.2-102.2-86.5-102.2-151.2c0-31.6,8.9-56.7,9-56.9
				c0.1-0.2,0.5-0.3,1-0.2c0.5,0.2,0.6,0.6,0.6,0.7c-0.8,2.6-6.7,20.6-6.7,43c0,24.6,10,39.1,22.9,39.1c7.2,0,13.4-5.6,13.4-13.4
				c0-15.1-18.4-16.8-18.4-49.1c0-14,2.8-26.2,7.3-40.7c21.2-69.2,86.5-101.7,150.7-102.2c29.8-0.2,55.9,8.7,56.9,9.5
				c0.2,0.1,0.3,0.5,0.2,1c-0.2,0.5-0.6,0.6-0.7,0.6c-0.3,0-17.3-7.1-43-7.1c-24,0-39.1,10-39.1,22.9c0,7.2,5.6,13.4,13.9,13.4
				c15.1,0,16.2-18.4,48.6-18.4c13.9,0,26.2,2.8,40.7,7.2c69.8,21.2,101.6,87.1,102.2,150.7C642.7,3242.7,633.6,3267.3,633.5,3267.5
				 M462.7,3018.1c-106.1,0-192,85.9-192,192c0,106.1,86,192,192,192c106,0,192-85.9,192-192
				C654.7,3104.6,568.8,3018.1,462.7,3018.1 M462.7,3411.6c-111.1,0-201.5-89.9-201.5-201.5c0-111.1,90.4-201.5,201.5-201.5
				c111.1,0,201.5,90.4,201.5,201.5C664.2,3321.7,573.8,3411.6,462.7,3411.6"/>
		</g>
	</g>
</g>
<g>
	<g id="Type_1_">
		<g>
			<path class="st2" d="M214,96.8c-0.4,0.1-0.9,0.1-1.3,0.1c-1.4,0-1.7-0.5-1.7-1.4v-5.2h-2.6v5.6c0,2.5,1.4,3.6,4.2,3.6
				c1.3,0,2.6-0.3,4.1-0.6v-8.5H214V96.8z M222.4,97c-1,0-1.1-0.4-1.1-1.2v-3.4h2.2v-2.2h-2.2v-2.6h-2.6v2.6h-1.3v2.2h1.3V96
				c0,1.6,0.3,3.4,2.9,3.4c0.8,0,1.4-0.2,2.2-0.4l-0.3-2.2C223.2,97,222.8,97,222.4,97z M195,92.1c-0.5-0.2-1-0.3-1.6-0.5
				c-1.5-0.4-2-0.7-2-1.3c0-0.8,0.6-1.2,2-1.2c1.1,0,2.1,0.3,3.1,0.7l0.6-2.5c-1.2-0.4-2.3-0.8-3.6-0.8c-3.1,0-4.9,1.8-4.9,3.9
				c0,1.6,0.7,2.6,2.3,3.3c0.4,0.2,1,0.3,1.6,0.5c1.7,0.5,2.2,0.8,2.2,1.4c0,0.8-0.7,1.2-2,1.2c-1.2,0-2.3-0.3-3.5-0.9l-0.6,2.6
				c1.3,0.5,2.6,0.9,4.1,0.9c3.2,0,4.9-1.8,4.9-3.9C197.5,93.7,196.5,92.7,195,92.1z M229.2,89.8c-0.9,0-1.7,0.2-2.3,0.4v-4.3h-2.6
				v13.4h2.6v-6.7c0.5-0.2,1-0.3,1.6-0.3c1,0,1.4,0.4,1.4,1.3v5.7h2.6v-6C232.6,91,231.5,89.8,229.2,89.8z M202.9,89.8
				c-2.6,0-4.8,1.9-4.8,4.8c0,2.9,2.1,4.9,4.8,4.9s4.8-1.9,4.8-4.9S205.5,89.8,202.9,89.8z M202.9,96.8c-1.1,0-2-0.8-2-2.3
				c0-1.5,0.9-2.3,2-2.3c1.2,0,2,0.8,2,2.3C204.9,96,204,96.8,202.9,96.8z M261.3,93.8c-0.4-0.1-0.8-0.3-1.3-0.4
				c-0.9-0.3-1.3-0.4-1.3-0.8s0.3-0.7,1.2-0.7c0.9,0,1.6,0.2,2.5,0.4l0.4-2.3c-1-0.2-1.9-0.4-2.9-0.4c-2.5,0-3.8,1.3-3.8,3
				c0,1.2,0.6,2,1.8,2.5c0.3,0.1,0.7,0.3,1.2,0.4c1,0.3,1.4,0.4,1.4,0.8s-0.6,0.6-1.3,0.6c-1,0-1.8-0.2-2.7-0.5l-0.4,2.3
				c1.1,0.3,2.2,0.5,3.3,0.5c2.6,0,3.8-1.3,3.8-3C263.2,95.2,262.8,94.4,261.3,93.8z M251.5,89.8c-2.7,0-4.7,1.9-4.7,4.9
				c0,2.8,1.7,4.7,4.7,4.7c1.3,0,2.4-0.4,3.6-0.9l-0.4-2.2c-0.9,0.4-1.7,0.7-2.8,0.7c-1.6,0-2.2-0.7-2.3-1.6h5.9c0,0,0.1-1,0.1-1.3
				C255.6,91.8,254.3,89.8,251.5,89.8z M249.7,93.7c0.2-0.8,0.6-1.8,1.7-1.8c1.1,0,1.5,1.1,1.5,1.8H249.7z M268.4,97
				c-1,0-1.1-0.4-1.1-1.2v-3.4h2.2v-2.2h-2.2v-2.6h-2.6v2.6h-1.3v2.2h1.3V96c0,1.6,0.4,3.4,3,3.4c0.8,0,1.4-0.2,2.2-0.4l-0.3-2.2
				C269.1,97,268.8,97,268.4,97z M270.1,86.5c-0.7,0-1.1,0.5-1.2,1.2c0,0.7,0.5,1.2,1.1,1.2c0.7,0,1.2-0.5,1.2-1.2
				C271.3,87,270.8,86.5,270.1,86.5z M270.1,88.6c-0.5,0-0.9-0.4-0.9-1s0.4-1,1-1c0.5,0,1,0.4,0.9,1
				C271.1,88.2,270.7,88.6,270.1,88.6z M270.3,87.7c0.2,0,0.3-0.1,0.3-0.3c0-0.2-0.2-0.4-0.4-0.4h-0.4v1.3h0.3v-0.6
				c0.1,0,0.1,0,0.2,0.1l0.3,0.4h0.3l-0.3-0.4C270.4,87.8,270.3,87.7,270.3,87.7z M270.1,87.5H270v-0.4h0.2c0.2,0,0.2,0.1,0.2,0.2
				C270.4,87.5,270.2,87.5,270.1,87.5z M244.4,90.3l-1.6,5l-1.6-5h-2.3l-1.7,5l-1.6-5h-2.8l3.3,9.1h2.4l1.6-4.9l1.6,4.9h2.4l3.3-9.1
				H244.4z"/>
		</g>
	</g>
	<g>
		<g>
			<path class="st2" d="M278.2,89.8c-0.9,0-1.6,0.3-2.2,0.6c-0.6-0.3-1.3-0.6-2.2-0.6c-1.8,0-2.9,1.1-2.9,3.1c0,2.4,2.3,4.7,5.1,6.6
				c2.8-1.9,5.1-4.2,5.1-6.6C281.1,90.9,279.9,89.8,278.2,89.8z"/>
			<path class="st2" d="M271.2,92.9c0,2.4,2.6,4.7,4.8,6.2c0.7-0.4,1.3-1,1.9-1.5c-2.9-2.4-5.7-4.6-6.6-5.4
				C271.2,92.4,271.2,92.7,271.2,92.9z"/>
			<path class="st2" d="M280.6,94.1c-2.1-1.7-3.4-2.6-4.8-3.5c-0.4-0.2-1.1-0.6-2-0.6c-0.8,0-1.5,0.3-2,0.7
				c-0.3,0.3-0.5,0.7-0.6,1.2c1.1,0.8,4.1,2.9,7.1,5.3C279.4,96.3,280.2,95.2,280.6,94.1z"/>
			<path class="st2" d="M280,90.8c-0.5-0.5-1.1-0.7-1.9-0.7c-0.8,0-1.4,0.3-1.9,0.5c0.8,0.5,2.6,1.5,4.5,2.9c0-0.2,0-0.4,0-0.6
				C280.8,92,280.5,91.2,280,90.8z"/>
		</g>
	</g>
</g>
</svg>
