<?xml version="1.0" encoding="utf-8"?>
<!-- Generator: Adobe Illustrator 24.0.3, SVG Export Plug-In . SVG Version: 6.00 Build 0)  -->
<svg width="90px" height="78px" version="1.1" id="Layer_1" xmlns="http://www.w3.org/2000/svg" xmlns:xlink="http://www.w3.org/1999/xlink" x="0px" y="0px"
	 viewBox="0 0 90 78" style="enable-background:new 0 0 90 78;" xml:space="preserve">
<style type="text/css">
	.st0{fill-rule:evenodd;clip-rule:evenodd;fill:#5AC987;}
	.st1{fill-rule:evenodd;clip-rule:evenodd;fill:#FFFFFF;}
</style>
<title>Group 9</title>
<desc>Created with Sketch.</desc>
<g id="Page-1">
	<g id="Program-Page-Template" transform="translate(-549.000000, -356.000000)">
		<g id="Group-9" transform="translate(549.000000, 356.000000)">
			<polygon id="Fill-1" class="st0" points="22.5,0 0,39 22.5,78 67.5,78 90,39 67.5,0 			"/>
			<g id="Group-8" transform="translate(23.119266, 18.255319)">
				<path id="Fill-2" class="st1" d="M5.7,37.6c-3.9,0-6.5-3.9-5-7.5L11.6,3.6c0.8-2,2.8-3.4,5-3.4c3.9,0,6.5,3.9,5,7.5L10.8,34.2
					C9.9,36.2,8,37.6,5.7,37.6"/>
				<path id="Fill-4" class="st1" d="M21.6,37.6c-3.9,0-6.5-3.9-5-7.5L27.5,3.6c0.8-2,2.8-3.4,5-3.4c3.9,0,6.5,3.9,5,7.5L26.6,34.2
					C25.8,36.2,23.8,37.6,21.6,37.6"/>
				<path id="Fill-6" class="st1" d="M44.3,31.4c0,3.4-2.8,6.2-6.3,6.2c-3.5,0-6.3-2.8-6.3-6.2s2.8-6.2,6.3-6.2
					C41.5,25.1,44.3,27.9,44.3,31.4"/>
			</g>
		</g>
	</g>
</g>
</svg>
