<?xml version="1.0" encoding="utf-8"?>
<!-- Generator: Adobe Illustrator 25.2.1, SVG Export Plug-In . SVG Version: 6.00 Build 0)  -->
<svg version="1.1" id="Layer_1" xmlns="http://www.w3.org/2000/svg" xmlns:xlink="http://www.w3.org/1999/xlink" x="0px" y="0px"
	 viewBox="0 0 90 78" style="enable-background:new 0 0 90 78;" xml:space="preserve">
<style type="text/css">
	.st0{fill-rule:evenodd;clip-rule:evenodd;fill:#F48449;}
	.st1{fill-rule:evenodd;clip-rule:evenodd;fill:#FFFFFF;}
</style>
<g id="Group-8">
	<polygon id="Fill-1" class="st0" points="22.5,0 0,39 22.5,78 67.5,78 90,39 67.5,0 	"/>
	<path id="Fill-4" class="st1" d="M37.2,55.8c-2.7,0-4.9-2.1-4.9-4.8c0-0.7,0.1-1.3,0.4-1.9l9.8-23.8c0.7-1.8,2.5-3,4.5-3.1
		c2.7,0,4.9,2.1,4.9,4.8c0,0.7-0.1,1.3-0.4,1.9l-9.8,23.8C40.9,54.6,39.2,55.8,37.2,55.8"/>
	<path id="Fill-6" class="st1" d="M57.6,50.2c0,3.1-2.4,5.7-5.6,5.7s-5.7-2.4-5.7-5.6c0-3.1,2.4-5.7,5.6-5.7c0,0,0.1,0,0.1,0
		c3-0.1,5.6,2.3,5.7,5.4C57.7,50.1,57.7,50.2,57.6,50.2"/>
</g>
</svg>
