<svg xmlns="http://www.w3.org/2000/svg" viewBox="0 0 44.03 37.4"><defs><style>.cls-1{fill:#f36059;}.cls-1,.cls-2{fill-rule:evenodd;}.cls-2{fill:#f48449;}</style></defs><g id="Layer_2" data-name="Layer 2"><g id="Layer_1-2" data-name="Layer 1"><g id="Page-1"><g id="Program-Page-Template"><g id="Group-9"><g id="Group-8"><path id="Fill-2" class="cls-1" d="M5.43,37.4a5.39,5.39,0,0,1-5-7.5L11.33,3.4a5.45,5.45,0,0,1,5-3.4,5.39,5.39,0,0,1,5,7.5L10.53,34a5.59,5.59,0,0,1-5.1,3.4"/><path id="Fill-4" class="cls-2" d="M21.33,37.4a5.39,5.39,0,0,1-5-7.5L27.23,3.4a5.45,5.45,0,0,1,5-3.4,5.39,5.39,0,0,1,5,7.5L26.33,34a5.45,5.45,0,0,1-5,3.4"/><path id="Fill-6" class="cls-2" d="M44,31.2a6.3,6.3,0,1,1-6.3-6.2A6.13,6.13,0,0,1,44,31.2"/></g></g></g></g></g></g></svg>