<svg width="90px" height="78px" id="Layer_1" data-name="Layer 1" xmlns="http://www.w3.org/2000/svg" viewBox="0 0 90 78"><defs><style>.cls-1{fill:#f48449;}.cls-1,.cls-2{fill-rule:evenodd;}.cls-2{fill:#fff;}</style></defs><g id="Group-8"><polygon id="Fill-1" class="cls-1" points="22.5 0 0 39 22.5 78 67.5 78 90 39 67.5 0 22.5 0"/><path id="Fill-2" class="cls-2" d="M30.09,55.81a4.84,4.84,0,0,1-4.49-6.74l9.8-23.82a4.89,4.89,0,0,1,4.49-3.06,4.84,4.84,0,0,1,4.49,6.74l-9.7,23.82a5,5,0,0,1-4.59,3.06" transform="translate(0 0)"/><path id="Fill-4" class="cls-2" d="M44.38,55.81a4.84,4.84,0,0,1-4.49-6.74l9.8-23.82a4.89,4.89,0,0,1,4.49-3.06,4.84,4.84,0,0,1,4.49,6.74L48.88,52.75a4.9,4.9,0,0,1-4.5,3.06" transform="translate(0 0)"/><path id="Fill-6" class="cls-2" d="M64.79,50.23a5.67,5.67,0,1,1-5.67-5.57,5.51,5.51,0,0,1,5.67,5.57" transform="translate(0 0)"/></g></svg>
