<?xml version="1.0" encoding="utf-8"?>
<!-- Generator: Adobe Illustrator 25.2.1, SVG Export Plug-In . SVG Version: 6.00 Build 0)  -->
<svg version="1.1" id="Layer_1" xmlns="http://www.w3.org/2000/svg" xmlns:xlink="http://www.w3.org/1999/xlink" x="0px" y="0px"
	 viewBox="0 0 90 78" style="enable-background:new 0 0 90 78;" xml:space="preserve">
<style type="text/css">
	.st0{fill-rule:evenodd;clip-rule:evenodd;fill:#FFCC2A;}
	.st1{fill:#FFFFFF;}
	.st2{fill-rule:evenodd;clip-rule:evenodd;fill:#FFFFFF;}
	.st3{display:none;fill-rule:evenodd;clip-rule:evenodd;fill:#FFFFFF;}
</style>
<g id="Group-8">
	<polygon id="Fill-1" class="st0" points="22.5,0 0,39 22.5,78 67.5,78 90,39 67.5,0 	"/>
	<path class="st1" d="M64.6,39.9c0-2.7-2.2-4.8-4.9-4.8c-2,0-3.8,1.2-4.5,3.1l-3,7.4l-1.5,3.6c-0.3,0.6-0.4,1.3-0.4,1.9
		c0,2.7,2.2,4.8,4.9,4.8h0c2,0,3.8-1.2,4.6-3.1l2.8-6.9l1.7-4.1C64.5,41.2,64.6,40.5,64.6,39.9z"/>
	<path id="Fill-2-2" class="st2" d="M40.3,55.8c-2.7,0-4.9-2.1-4.9-4.8c0-0.7,0.1-1.3,0.4-1.9l9.8-23.8c0.7-1.8,2.5-3,4.5-3.1
		c2.7,0,4.9,2.1,4.9,4.8c0,0.7-0.1,1.3-0.4,1.9l-9.7,23.8C44.1,54.6,42.3,55.8,40.3,55.8"/>
	<path id="Fill-4" class="st2" d="M25,55.8c-2.7,0-4.9-2.1-4.9-4.8c0-0.7,0.1-1.3,0.4-1.9l9.8-23.8c0.7-1.8,2.5-3,4.5-3.1
		c2.7,0,4.9,2.1,4.9,4.8c0,0.7-0.1,1.3-0.4,1.9l-9.8,23.8C28.8,54.6,27,55.8,25,55.8"/>
</g>
<path id="Fill-6" class="st3" d="M61.7,50c0.1,3.1-2.4,5.7-5.6,5.8c-3.1,0.1-5.7-2.4-5.8-5.6c-0.1-3.1,2.4-5.7,5.6-5.8
	c0,0,0.1,0,0.1,0c3-0.1,5.6,2.3,5.7,5.3C61.7,49.9,61.7,50,61.7,50"/>
<path id="Fill-6_1_" class="st3" d="M67.7,37.2c0.1,3.5-3.1,6.4-6.8,5.7c-2.2-0.4-3.9-2.1-4.4-4.2c-0.8-3.7,1.9-6.9,5.4-7
	c0.4,0,0.9,0,1.3,0.1c0.8,0.2,1.6,0.5,2.3,1C67,34,67.7,35.6,67.7,37.2"/>
</svg>
