<?xml version="1.0" encoding="UTF-8"?>
<svg width="90px" height="78px" viewBox="0 0 90 78" version="1.1" xmlns="http://www.w3.org/2000/svg" xmlns:xlink="http://www.w3.org/1999/xlink">
    <!-- Generator: Sketch 51.3 (57544) - http://www.bohemiancoding.com/sketch -->
    <title>Group 9</title>
    <desc>Created with Sketch.</desc>
    <defs></defs>
    <g id="Page-1" stroke="none" stroke-width="1" fill="none" fill-rule="evenodd">
        <g id="Program-Page-Template" transform="translate(-549.000000, -356.000000)">
            <g id="Group-9" transform="translate(549.000000, 356.000000)">
                <polygon id="Fill-1" fill="#F15651" points="22.5 0 0 38.9994226 22.5 78 67.5 78 90 38.9994226 67.5 0"></polygon>
                <g id="Group-8" transform="translate(23.119266, 18.255319)" fill="#FFFFFF">
                    <path d="M5.73868073,37.5646804 C1.86157982,37.5646804 -0.77632844,33.6623863 0.696368807,30.1030628 L11.6317817,3.64844512 C12.469855,1.618151 14.4627358,0.292151001 16.6752495,0.292151001 C20.5511945,0.292151001 23.1902587,4.19444512 21.7175615,7.75376865 L10.7821486,34.2083863 C9.94291927,36.2386804 7.95003853,37.5646804 5.73868073,37.5646804" id="Fill-2"></path>
                    <path d="M21.5642807,37.5646804 C17.6871798,37.5646804 15.0492716,33.6623863 16.5208128,30.1030628 L27.4573817,3.64844512 C28.295455,1.618151 30.2883358,0.292151001 32.4996936,0.292151001 C36.3767945,0.292151001 39.0147028,4.19444512 37.5431615,7.75376865 L26.6077486,34.2083863 C25.7685193,36.2386804 23.7756385,37.5646804 21.5642807,37.5646804" id="Fill-4"></path>
                    <path d="M44.2568807,31.3526686 C44.2568807,34.7835216 41.4536697,37.5651392 37.9961835,37.5651392 C34.5398532,37.5651392 31.7366422,34.7835216 31.7366422,31.3526686 C31.7366422,27.9218157 34.5398532,25.1401981 37.9961835,25.1401981 C41.4536697,25.1401981 44.2568807,27.9218157 44.2568807,31.3526686" id="Fill-6"></path>
                </g>
            </g>
        </g>
    </g>
</svg>