<svg width="90px" height="78px" id="Layer_1" data-name="Layer 1" xmlns="http://www.w3.org/2000/svg" viewBox="0 0 90 78"><defs><style>.cls-1{fill:#9a549a;}.cls-1,.cls-2{fill-rule:evenodd;}.cls-2{fill:#fff;}</style></defs><g id="Group-8"><polygon id="Fill-1" class="cls-1" points="22.5 0 0 39 22.5 78 67.5 78 90 39 67.5 0 22.5 0"/><path id="Fill-4" class="cls-2" d="M37.24,55.81a4.84,4.84,0,0,1-4.49-6.74l9.79-23.82A4.9,4.9,0,0,1,47,22.19a4.84,4.84,0,0,1,4.49,6.74l-9.8,23.82a4.89,4.89,0,0,1-4.49,3.06" transform="translate(0)"/><path id="Fill-6" class="cls-2" d="M57.64,50.23A5.66,5.66,0,1,1,52,44.66a5.51,5.51,0,0,1,5.66,5.57" transform="translate(0)"/></g></svg>
