<svg width="90px" height="78px" id="Layer_1" data-name="Layer 1" xmlns="http://www.w3.org/2000/svg" viewBox="0 0 90 78"><defs><style>.cls-1{fill:#5ac987;}.cls-1,.cls-2{fill-rule:evenodd;}.cls-2{fill:#fff;}</style></defs><g id="Group-8"><polygon id="Fill-1" class="cls-1" points="22.5 0 0 39 22.5 78 67.5 78 90 39 67.5 0 22.5 0"/><path id="Fill-2" class="cls-2" d="M55.16,55.81a4.85,4.85,0,0,1-4.5-6.74l9.8-23.82A4.9,4.9,0,0,1,65,22.19a4.85,4.85,0,0,1,4.5,6.74L59.74,52.75a5,5,0,0,1-4.58,3.06"/><path id="Fill-2-2" data-name="Fill-2" class="cls-2" d="M40.33,55.81a4.85,4.85,0,0,1-4.5-6.74l9.8-23.82a4.9,4.9,0,0,1,4.49-3.06,4.85,4.85,0,0,1,4.5,6.74L44.91,52.75a5,5,0,0,1-4.58,3.06"/><path id="Fill-4" class="cls-2" d="M25.05,55.81a4.85,4.85,0,0,1-4.5-6.74l9.8-23.82a4.9,4.9,0,0,1,4.49-3.06,4.85,4.85,0,0,1,4.5,6.74l-9.8,23.82a4.9,4.9,0,0,1-4.49,3.06"/></g></svg>
