<?xml version="1.0" encoding="utf-8"?>
<!-- Generator: Adobe Illustrator 25.2.1, SVG Export Plug-In . SVG Version: 6.00 Build 0)  -->
<svg version="1.1" id="Layer_1" xmlns="http://www.w3.org/2000/svg" xmlns:xlink="http://www.w3.org/1999/xlink" x="0px" y="0px"
	 viewBox="0 0 90 78" style="enable-background:new 0 0 90 78;" xml:space="preserve">
<style type="text/css">
	.st0{fill-rule:evenodd;clip-rule:evenodd;fill:#424242;}
	.st1{display:none;}
	.st2{display:inline;fill:#FFFFFF;}
	.st3{display:inline;fill-rule:evenodd;clip-rule:evenodd;fill:#FFFFFF;}
	.st4{fill:#FFFFFF;}
</style>
<polygon id="Fill-1" class="st0" points="22.5,0 0,39 22.5,78 67.5,78 90,39 67.5,0 "/>
<g class="st1">
	<path id="halfpill" class="st2" d="M67.4,39.9c0-2.7-2.2-4.8-4.9-4.8c-2,0-3.8,1.2-4.5,3.1l-3,7.4l-1.5,3.6
		c-0.3,0.6-0.4,1.3-0.4,1.9c0,2.7,2.2,4.8,4.9,4.8l0,0c2,0,3.8-1.2,4.6-3.1l2.8-6.9l1.7-4.1C67.3,41.2,67.4,40.5,67.4,39.9z"/>
	<path id="pill2" class="st3" d="M43.2,55.8c-2.7,0-4.9-2.1-4.9-4.8c0-0.7,0.1-1.3,0.4-1.9l9.8-23.8c0.7-1.8,2.5-3,4.5-3.1
		c2.7,0,4.9,2.1,4.9,4.8c0,0.7-0.1,1.3-0.4,1.9l-9.7,23.8C47,54.6,45.2,55.8,43.2,55.8"/>
	<path id="pill" class="st3" d="M27.9,55.8c-2.7,0-4.9-2.1-4.9-4.8c0-0.7,0.1-1.3,0.4-1.9l9.8-23.8c0.7-1.8,2.5-3,4.5-3.1
		c2.7,0,4.9,2.1,4.9,4.8c0,0.7-0.1,1.3-0.4,1.9l-9.8,23.8C31.6,54.6,29.9,55.8,27.9,55.8"/>
</g>
<g class="st1">
	<path class="st2" d="M62.6,36.4l-9,6.3c-0.4,0.3-0.6,0.9-0.5,1.4l3.5,10.2c0.4,1.1-0.9,2.1-1.9,1.4l-9-6.4c-0.4-0.3-1-0.3-1.4,0
		l-9,6.4c-1,0.7-2.3-0.3-1.9-1.4l3.5-10.2c0.2-0.5,0-1.1-0.5-1.4l-9-6.3c-1-0.7-0.5-2.2,0.7-2.2h11.1c0.5,0,1-0.3,1.2-0.8L43.9,23
		c0.4-1.1,2-1.1,2.3,0l3.5,10.4c0.2,0.5,0.6,0.8,1.2,0.8H62C63.1,34.1,63.6,35.7,62.6,36.4z"/>
</g>
<g class="st1">
	<path class="st2" d="M32.9,46.1c-1,0.6-1.9,1.3-2.6,2c-0.4,0.8-0.6,1.2-0.8,1.2h-2.7H21c0-2.1,1.1-3.6,3.2-4.3c0.1,0,0.4-0.1,1-0.2
		c0.6-0.1,1.1-0.3,1.5-0.4c0.4-0.1,0.7-0.3,0.8-0.5c0.1-0.2,0.1-0.8,0.1-1.7c-1.4,0.1-2.6-0.1-3.4-0.8l0.4-1.3
		c0.1-0.1,0.1-0.3,0.2-0.6c0.1-0.2,0.1-0.4,0.1-0.6c0.1-0.6,0.1-1.6,0.1-3c0-2.6,0.3-4.4,0.9-5.3c0.8-1.3,2.1-1.9,4.1-1.9
		c2.9,0,4.6,1.3,5,4c0.1,0.6,0.2,1.6,0.2,2.8c0,1.3,0,2,0,2.3c0,0.8,0.2,1.6,0.5,2.6c0.3,0.6,0.4,0.9,0.3,1l-0.6,0.3
		c-0.4,0.1-1,0.3-1.8,0.4c-0.6,0-0.9,0-1,0.1v1.2c0,0.4,0.2,0.7,0.5,0.8c0.1,0.1,0.4,0.1,0.8,0.2c0.4,0.1,0.7,0.2,1,0.3
		s0.5,0.2,0.6,0.4c0.2,0.4,0.1,0.5-0.2,0.5C34.3,45.7,33.5,45.9,32.9,46.1L32.9,46.1l-0.4,0.2h0.1C32.7,46.2,32.8,46.2,32.9,46.1z
		 M55,47.5c1.5,0.6,2.7,1.5,3.6,2.7c0.9,1.3,1.3,2.7,1.3,4.2h-3H30.1c0-2.6,1-4.5,2.9-5.9c0.7-0.5,2.5-1.1,5.3-1.7
		c1.7-0.2,2.6-0.7,2.8-1.4c0.1-0.3,0.1-1.1,0.1-2.5c0-0.2-0.1-0.4-0.2-0.5c-0.3-0.3-0.6-0.8-0.9-1.5c-0.1-0.6-0.3-1.4-0.4-2.6
		c-0.3,0.1-0.5,0-0.7-0.3s-0.3-0.7-0.4-1.1c-0.1-0.5-0.2-0.7-0.2-0.8c-0.3-1.6-0.2-2.3,0.3-2.3c-0.2-0.3-0.4-1-0.5-2
		c-0.2-1.6-0.1-3,0.3-4.2c0.5-1.4,1.4-2.4,2.7-3.1s2.7-1,4.2-1c1.4,0.1,2.7,0.5,3.9,1.3s2,1.9,2.4,3.2c0.4,1,0.4,2.4,0.1,4.2
		c-0.1,0.9-0.3,1.4-0.4,1.6c0.2-0.1,0.4,0,0.5,0.2s0.1,0.5,0.1,0.8s-0.1,0.6-0.1,0.9c0,0.3-0.1,0.4-0.2,0.6l-0.2,0.8
		c-0.1,0.5-0.2,0.9-0.4,1.1c-0.2,0.2-0.4,0.3-0.7,0.2c-0.1,1.6-0.4,2.7-0.8,3.3c0,0.1-0.1,0.3-0.4,0.5c-0.3,0.3-0.4,0.5-0.4,0.5v1.2
		c0,0.7,0.1,1.3,0.2,1.6c0.1,0.4,0.6,0.6,1.5,0.9c0.5,0.2,1.2,0.4,2.2,0.5C53.7,47.1,54.5,47.3,55,47.5z M32.9,46.1h0.2H32.9
		L32.9,46.1z M65.7,45c2.2,0.7,3.3,2.1,3.3,4.3h-8.6c-0.1-0.5-0.7-1.2-1.7-2c-1.2-0.9-2.2-1.5-3-1.6c-0.1,0-0.3,0-0.5,0
		c-0.3,0-0.5,0-0.7-0.1s-0.2-0.2-0.2-0.4c0.1-0.2,0.6-0.4,1.4-0.6c1.1-0.3,1.6-0.5,1.7-0.8v-1.5c-0.4,0-1.1-0.1-1.9-0.2
		c-0.4-0.1-0.8-0.3-1.2-0.4c-0.3-0.1-0.3-0.5,0-1.2c0.2-0.5,0.4-2.3,0.5-5.5c0.1-3.1,1.1-5.1,2.9-5.8c1.8-0.7,3.5-0.6,5.1,0.3
		c1.4,0.9,2.1,2.4,2.1,4.7c0,0.3,0,0.8-0.1,1.6c0,0.8-0.1,1.4-0.1,1.8c0,0.4,0.1,1,0.2,1.6s0.4,1.2,0.6,1.6c0.2,0.4,0.2,0.6,0,0.6
		c-0.1,0.1-0.2,0.1-0.3,0.1c-0.1,0-0.3,0-0.3,0.1l-1,0.4c-0.3,0.1-0.8,0.1-1.4,0.1c0,1.1,0,1.8,0.1,1.8c0.2,0.2,0.5,0.4,0.9,0.5
		s0.8,0.3,1.2,0.3C65.1,44.9,65.5,44.9,65.7,45z"/>
</g>
<g class="st1">
	<path class="st2" d="M55.1,32.9h-2.6h-0.3l-0.1-0.1c-1.7-1.7-4.9-2.5-6.9-2.5c2.3-0.1,4.1-2,4.1-4.3v-1.1c0-2.4-1.9-4.3-4.3-4.3
		s-4.3,1.9-4.3,4.3V26c0,2.3,1.8,4.2,4.1,4.3c-2,0-5.3,0.8-6.9,2.5l-0.1,0.1h-0.3h-2.6c-2.9,0-8.2,1.4-8.2,4.9v7.9
		c0,2,1.4,3.4,3.3,3.6v8.2h1h1v-17h-2v6.9c-0.8-0.1-1.3-0.8-1.3-1.6v-7.9c0-1.6,3.8-2.9,6.2-2.9h2c0,0.1,0,0.2,0,0.3v7.9
		c0,1.9,1.4,3.4,3.3,3.6v10.8h1h1H44h2h1.9h1h1V46.7c1.9-0.2,3.3-1.6,3.3-3.6v-7.9c0-0.1,0-0.2,0-0.3h2c2.5,0,6.2,1.3,6.2,2.9v7.9
		c0,0.9-0.5,1.5-1.3,1.6v-6.9h-2v17h1h1v-8.2c1.9-0.2,3.3-1.7,3.3-3.6v-7.9C63.4,34.3,58,32.9,55.1,32.9z"/>
	<path class="st2" d="M55.1,32.9c2.4,0,4.3-1.9,4.3-4.3v-1.1c0-2.4-1.9-4.3-4.3-4.3c-2.4,0-4.3,1.9-4.3,4.3v1.1
		C50.9,30.9,52.8,32.9,55.1,32.9z M52.9,27.4c0-1.3,1-2.3,2.3-2.3s2.3,1,2.3,2.3v1.1c0,1.3-1,2.3-2.3,2.3s-2.3-1-2.3-2.3V27.4z"/>
	<path class="st2" d="M34.9,32.9c2.4,0,4.3-1.9,4.3-4.3v-1.1c0-2.4-1.9-4.3-4.3-4.3c-2.4,0-4.3,1.9-4.3,4.3v1.1
		C30.6,30.9,32.5,32.9,34.9,32.9z M32.6,27.4c0-1.3,1-2.3,2.3-2.3s2.3,1,2.3,2.3v1.1c0,1.3-1,2.3-2.3,2.3s-2.3-1-2.3-2.3V27.4z"/>
</g>
<g>
	<g>
		<path class="st4" d="M34.1,29c1.9,0,3.5-1.6,3.5-3.5c0-1.9-1.6-3.5-3.5-3.5c-1.9,0-3.5,1.6-3.5,3.5C30.6,27.5,32.2,29,34.1,29z"/>
	</g>
	<g>
		<path class="st4" d="M56.8,29c1.9,0,3.5-1.6,3.5-3.5c0-1.9-1.6-3.5-3.5-3.5c-1.9,0-3.5,1.6-3.5,3.5C53.3,27.5,54.8,29,56.8,29z"/>
	</g>
	<g>
		<g>
			<path class="st4" d="M45.4,26.1c2.5,0,4.5-2,4.5-4.5s-2-4.5-4.5-4.5c-2.5,0-4.5,2-4.5,4.5S43,26.1,45.4,26.1z"/>
		</g>
		<g>
			<path class="st4" d="M49.4,29.1h-8.1c-1.9,0-3.4,1.5-3.4,3.4v12c0,1.8,1.4,3.2,3.2,3.4v10.2c0,1.5,1.2,2.7,2.7,2.7H47
				c1.5,0,2.7-1.2,2.7-2.7V47.8c1.8-0.1,3.2-1.6,3.2-3.4v-12C52.8,30.6,51.3,29.1,49.4,29.1z"/>
			<g>
				<path class="st4" d="M36.4,44.5v-12c0-0.4,0.1-0.8,0.2-1.2h-5.6c-1.5,0-2.6,1.2-2.6,2.6v9.3c0,1.4,1.1,2.5,2.4,2.6v8
					c0,1.2,1,2.1,2.1,2.1h2.4c1.2,0,2.1-1,2.1-2.1v-6.3C36.7,46.6,36.4,45.6,36.4,44.5z"/>
			</g>
			<g>
				<path class="st4" d="M59.9,31.3h-5.6c0.1,0.4,0.2,0.8,0.2,1.2v12c0,1.1-0.4,2.2-1,3v6.3c0,1.2,1,2.1,2.1,2.1H58
					c1.2,0,2.1-1,2.1-2.1v-8c1.4-0.1,2.4-1.2,2.4-2.6v-9.3C62.5,32.5,61.3,31.3,59.9,31.3z"/>
			</g>
		</g>
	</g>
</g>
<g class="st1">
	<polygon class="st2" points="43.5,21.4 27.1,21.4 27.1,26.9 45.3,36 62.9,26.9 62.9,21.4 	"/>
	<polygon class="st2" points="27.1,30.5 27.1,56.6 62.9,56.6 62.9,51.1 32.6,51.1 32.6,39.6 45.3,45.7 62.9,36.6 62.9,30.5 
		45.3,39.6 	"/>
</g>
</svg>
