<?xml version="1.0" encoding="utf-8"?>
<!-- Generator: Adobe Illustrator 24.2.0, SVG Export Plug-In . SVG Version: 6.00 Build 0)  -->
<svg version="1.1" id="Layer_1" xmlns="http://www.w3.org/2000/svg" xmlns:xlink="http://www.w3.org/1999/xlink" x="0px" y="0px"
	 viewBox="0 0 90 78" style="enable-background:new 0 0 90 78;" xml:space="preserve">
<style type="text/css">
	.st0{fill-rule:evenodd;clip-rule:evenodd;fill:#FFCC2A;}
	.st1{display:none;}
	.st2{display:inline;fill-rule:evenodd;clip-rule:evenodd;fill:#FFFFFF;}
	.st3{fill:#FFFFFF;}
</style>
<g id="Page-1">
	<g id="Program-Page-Template" transform="translate(-549.000000, -356.000000)">
		<g id="Group-9" transform="translate(549.000000, 356.000000)">
			<polygon id="Fill-1" class="st0" points="22.5,0 0,39 22.5,78 67.5,78 90,39 67.5,0 			"/>
			<g id="Group-8" transform="translate(23.119266, 18.255319)" class="st1">
				<path id="Fill-2" class="st2" d="M5.7,37.6c-3.9,0-6.5-3.9-5-7.5L11.6,3.6c0.8-2,2.8-3.4,5-3.4c3.9,0,6.5,3.9,5,7.5L10.8,34.2
					C9.9,36.2,8,37.6,5.7,37.6"/>
				<path id="Fill-4" class="st2" d="M21.6,37.6c-3.9,0-6.5-3.9-5-7.5L27.5,3.6c0.8-2,2.8-3.4,5-3.4c3.9,0,6.5,3.9,5,7.5L26.6,34.2
					C25.8,36.2,23.8,37.6,21.6,37.6"/>
				<path id="Fill-6" class="st2" d="M44.3,31.4c0,3.4-2.8,6.2-6.3,6.2c-3.5,0-6.3-2.8-6.3-6.2s2.8-6.2,6.3-6.2
					C41.5,25.1,44.3,27.9,44.3,31.4"/>
			</g>
		</g>
	</g>
</g>
<polygon class="st3" points="61.6,27.9 45.3,36.3 28.5,27.9 28.5,22.9 43.6,22.9 61.6,22.9 "/>
<polygon class="st3" points="61.6,55.4 28.5,55.4 28.5,31.3 45.3,39.7 61.6,31.3 61.6,36.9 45.3,45.3 33.6,39.7 33.6,50.4 
	61.6,50.4 "/>
</svg>
