<?xml version="1.0" encoding="utf-8"?>
<!-- Generator: Adobe Illustrator 25.2.1, SVG Export Plug-In . SVG Version: 6.00 Build 0)  -->
<svg version="1.1" id="Layer_1" xmlns="http://www.w3.org/2000/svg" xmlns:xlink="http://www.w3.org/1999/xlink" x="0px" y="0px"
	 viewBox="0 0 90 78" style="enable-background:new 0 0 90 78;" xml:space="preserve">
<style type="text/css">
	.st0{fill-rule:evenodd;clip-rule:evenodd;fill:#424242;}
	.st1{fill:#FFFFFF;}
	.st2{fill-rule:evenodd;clip-rule:evenodd;fill:#FFFFFF;}
</style>
<polygon id="Fill-1" class="st0" points="22.5,0 0,39 22.5,78 67.5,78 90,39 67.5,0 "/>
<g>
	<path id="halfpill" class="st1" d="M67.4,39.9c0-2.7-2.2-4.8-4.9-4.8c-2,0-3.8,1.2-4.5,3.1l-3,7.4l-1.5,3.6
		c-0.3,0.6-0.4,1.3-0.4,1.9c0,2.7,2.2,4.8,4.9,4.8h0c2,0,3.8-1.2,4.6-3.1l2.8-6.9l1.7-4.1C67.3,41.2,67.4,40.5,67.4,39.9z"/>
	<path id="pill2" class="st2" d="M43.2,55.8c-2.7,0-4.9-2.1-4.9-4.8c0-0.7,0.1-1.3,0.4-1.9l9.8-23.8c0.7-1.8,2.5-3,4.5-3.1
		c2.7,0,4.9,2.1,4.9,4.8c0,0.7-0.1,1.3-0.4,1.9l-9.7,23.8C47,54.6,45.2,55.8,43.2,55.8"/>
	<path id="pill" class="st2" d="M27.9,55.8c-2.7,0-4.9-2.1-4.9-4.8c0-0.7,0.1-1.3,0.4-1.9l9.8-23.8c0.7-1.8,2.5-3,4.5-3.1
		c2.7,0,4.9,2.1,4.9,4.8c0,0.7-0.1,1.3-0.4,1.9l-9.8,23.8C31.6,54.6,29.9,55.8,27.9,55.8"/>
</g>
</svg>
