<svg xmlns="http://www.w3.org/2000/svg" viewBox="0 0 64.79 50"><g id="Layer_2" data-name="Layer 2"><g id="Layer_1-2" data-name="Layer 1"><g id="Page-1"><g id="Concept-2-Copy-2"><g id="Group-7-Copy"><path id="Triangle-Copy" d="M23.2,6l1.46-2.81A5.92,5.92,0,0,1,32.52.58a6.29,6.29,0,0,1,2.63,2.63L54.37,41.56a5.83,5.83,0,0,1-2.62,7.86,6.07,6.07,0,0,1-2.62.58H46" style="fill:#949494;fill-rule:evenodd"/><path id="Triangle" d="M19.51,20.1,34.56,50H6.8A6.75,6.75,0,0,1,0,43.21a7.55,7.55,0,0,1,.68-3l10.1-20a4.73,4.73,0,0,1,6.5-2.14A3.81,3.81,0,0,1,19.51,20.1Z" style="fill:#5e5e5e;fill-rule:evenodd"/></g></g><path d="M64.79,10.79H58v6.79H54V10.79H47.2v-4H54V0h4V6.79h6.79Z" style="fill:#5e5e5e"/></g></g></g></svg>