<?xml version="1.0" encoding="utf-8"?>
<!-- Generator: Adobe Illustrator 24.0.3, SVG Export Plug-In . SVG Version: 6.00 Build 0)  -->
<svg version="1.1" id="Layer_1" xmlns="http://www.w3.org/2000/svg" xmlns:xlink="http://www.w3.org/1999/xlink" x="0px" y="0px"
	 viewBox="0 0 35 31" style="enable-background:new 0 0 35 31;" xml:space="preserve">
<style type="text/css">
	.st0{fill:#F15651;}
	.st1{fill:#FF8444;}
	.st2{fill:#C43653;}
</style>
<g id="Group-10-Copy" transform="translate(614.000000, 1974.000000)">
	<g id="XMLID_1_">
		<g>
			<path class="st0" d="M-584.5-1962c1.9,0,3.5,1.6,3.5,3.5s-1.6,3.5-3.5,3.5h-8.5v-7H-584.5z"/>
			<path class="st1" d="M-593-1953v6.5c0,1.9-1.6,3.5-3.5,3.5c-1,0-1.8-0.4-2.5-1c-0.6-0.6-1-1.5-1-2.5v-6.5H-593z"/>
			<rect x="-600" y="-1962" class="st2" width="7" height="7"/>
			<path class="st1" d="M-593-1970.5v6.5h-7v-6.5c0-1.9,1.6-3.5,3.5-3.5S-593-1972.4-593-1970.5z"/>
			<path class="st0" d="M-600-1962v7h-8.5c-1.9,0-3.5-1.6-3.5-3.5s1.6-3.5,3.5-3.5H-600z"/>
		</g>
		<g>
		</g>
	</g>
</g>
</svg>
