<?xml version="1.0" encoding="utf-8"?>
<!-- Generator: Adobe Illustrator 24.2.0, SVG Export Plug-In . SVG Version: 6.00 Build 0)  -->
<svg version="1.1" id="Layer_1" xmlns="http://www.w3.org/2000/svg" xmlns:xlink="http://www.w3.org/1999/xlink" x="0px" y="0px"
	 viewBox="0 0 264.1 276.9" style="enable-background:new 0 0 264.1 276.9;" xml:space="preserve">
<style type="text/css">
	.st0{fill:#FFCC2A;}
	.st1{fill:#FFE49F;}
</style>
<g id="Layer_2_1_">
	<g id="Layer_1-2">
		<path class="st0" d="M142.6,2.5L142.6,2.5c13.4,6.3,19.1,22.2,12.9,35.6l-104.5,223c-6.3,13.4-22.2,19.1-35.5,12.9l0,0
			C2,267.7-3.7,251.8,2.5,238.4L107,15.4C113.3,2,129.2-3.7,142.6,2.5z"/>
		<path class="st1" d="M248.7,2.9L248.7,2.9c13.4,6.3,19.1,22.2,12.9,35.6L157,261.5c-6.3,13.4-22.2,19.1-35.5,12.9l0,0
			c-13.4-6.3-19.1-22.2-12.9-35.5l104.5-223C219.4,2.4,235.3-3.4,248.7,2.9z"/>
	</g>
</g>
</svg>
