<?xml version="1.0" encoding="utf-8"?>
<!-- Generator: Adobe Illustrator 24.0.3, SVG Export Plug-In . SVG Version: 6.00 Build 0)  -->
<svg version="1.1" id="Layer_1" xmlns="http://www.w3.org/2000/svg" xmlns:xlink="http://www.w3.org/1999/xlink" x="0px" y="0px"
	 viewBox="0 0 680 280" style="enable-background:new 0 0 680 280;" xml:space="preserve">
<style type="text/css">
	.st0{fill:none;stroke:#292933;stroke-width:2;stroke-linecap:round;stroke-linejoin:round;stroke-miterlimit:10;}
	.st1{fill:#292933;}
</style>
<path class="st0" d="M246.4,211.7C349,143.3,454.3,73.2,584.4,57.9"/>
<path class="st0" d="M125.6,276.6c19.6-0.7,43.1-11.3,67.6-30.4"/>
<path class="st0" d="M105,272.9c2.7,1.2,5.4,2.1,8.4,2.7"/>
<path class="st0" d="M96.7,267.9c0.4,0.3,0.9,0.7,1.3,1"/>
<path class="st0" d="M81.6,248.8c2.2,4.3,5.2,8.7,9.1,13.3"/>
<path class="st0" d="M96.3,3.1C317.4,94.5,108,142.6,79.7,214.2"/>
<title>SalesLoft</title>
<g>
	<path class="st1" d="M89.7,240c0,0-0.2,0.2-0.2,0.2c-0.3,0.3-0.7,0.6-1.1,0.4c-0.1,0-0.2-0.2-0.2-0.3c0-0.8,0.4-1.6,0.7-2.3
		l0.1-0.2c1-1.7,2.3-3.8,4-5.2c0.3-0.2,0.6-0.4,1-0.3c0.1,0.1,0.2,0.2,0.2,0.3c0,0,0,0.1-0.1,0.2c-0.5,0.8-1,1.6-1.4,2.5
		C91.8,236.9,90.9,238.5,89.7,240L89.7,240z M80.1,235.9c-0.1,0-1.3-0.4-1.5-1.5c-0.2-1,0.5-1.7,1.1-2.1c0.3-0.2,0.7-0.3,1-0.2
		c0.3,0.2,0.4,0.5,0.4,0.9c0,0.2,0,0.5-0.1,0.7c0,0,0,0,0,0C80.8,234.5,80.5,235.2,80.1,235.9L80.1,235.9z M75.5,240.4
		c-0.1-0.2-0.2-0.4-0.2-0.6c0-1.3,1.4-3.7,2.4-5h0c0.4,0.9,1.4,1.5,1.9,1.8C79,238.2,76.6,241.6,75.5,240.4L75.5,240.4z M92.9,240.6
		c-0.2,0.2-0.6,0-0.4-0.3c0.3-0.9,1.5-2.9,1.5-2.9l3.4-6.1H95c-0.1,0.2-0.4,0.6-0.4,0.6c-0.1-0.2-0.4-0.6-0.6-0.7
		c-0.6-0.4-1.4-0.2-2,0.1c-2.5,1.5-4.4,4.4-5.8,6.7c0,0-1.5,2.5-2.4,2.7c-0.7,0.1-0.6-0.8-0.6-1.1c0.3-1.5,0.9-2.9,1.5-4.2
		c1.2-0.8,2.6-2,3.9-3.2c2.8-2.6,5.1-5.6,5.4-6.3c0,0-0.4,0.1-0.8,0.1c-2.1,3-6.5,7.3-7.8,7.9c0.6-1.4,4.3-8.1,7.6-11.3l0.5-0.5
		c0.8-0.8,1.6-1.5,2.2-1.7c0.1,0,0.2,0,0.2,0.2c0,0.6-0.2,1-0.4,1.5l-0.4,0.7c0,0,0.5-0.1,0.8-0.2c0.4-0.7,0.8-1.5,0.7-2.5
		c-0.1-0.3-0.3-0.5-0.6-0.6c-1-0.2-2,0.5-2.8,1.1l0,0c-4.3,3.4-7.9,8.2-11.1,14.9c-0.2,0.2-1.1,0.4-1.3,0.3c0.3-0.6,0.7-1.5,0.9-2.5
		c0-0.3,0.1-0.5,0.1-0.8c0-0.6-0.1-1.1-0.7-1.5c-0.6-0.3-1.4-0.2-1.9,0.1c-2.3,0.9-4,3.3-5.2,5.2c-0.7,1.2-1.3,2.5-1.5,4
		c-0.1,1.2,0.1,1.9,0.8,2.3c0.7,0.4,1.5,0,1.9-0.2c2.3-1.2,3.9-3.6,5.2-5.9c0.1,0,0.7,0,1.3-0.2c0,0,0,0,0,0c0,0.1-0.3,0.9-0.3,0.9
		c-0.8,2.4-1.2,4-0.4,4.9c1.1,1.3,2.9,0,4.3-1.9c-0.3,2.2,0.8,2.5,1.7,2.4c1-0.3,2.1-1.3,2.6-1.9c-0.2,0.6-0.1,1.8,0.8,1.9
		c0.6,0.1,1.1-0.2,1.6-0.5c1.9-1.1,4.2-4.6,4.8-5.6h-0.8C95.3,238.1,94.2,239.8,92.9,240.6L92.9,240.6z M63.1,227.5h2.2l1.2-2h-2.2
		L63.1,227.5z M98.4,222.2c-1.7,1-3.4,1.6-5.5,1.4c-0.6,0.7-1.2,1.3-1.7,2c3,0.8,6.1-0.9,7.9-2.5c1.9-1.6,2.8-3.6,2.8-3.6
		S100.5,221,98.4,222.2L98.4,222.2z M79.8,221.7c-0.4,4-3.5,6.4-4.3,6.6c-0.5,0.1-1.3-0.1-0.6-1.8c1.1-2.3,2.9-4.2,4.8-5.2
		C79.9,221.4,79.8,221.5,79.8,221.7L79.8,221.7z M73.7,231.8c-0.2-0.5-0.8-0.8-1.3-0.8c-1.8,0.2-3.6,1.7-4.6,3.9
		c-0.5,1.1-0.8,2-0.9,3.5c0.6-0.7,1.7-1.7,3.1-2.3c0,0,0.2-1.4,1.1-2.7c0.3-0.5,1-1.4,1.8-1.1c0.7,0.2,0.4,2.1-0.5,4
		c-0.7,1.3-1.7,2.7-2.7,3.6c-0.9,0.8-2.3,1.7-3.5,1c-0.8-0.4-1.1-1.4-1.1-2.6c0.4-3.4,1.9-6.3,4.1-9.6c2.3-3.1,4.8-6.2,8.2-7.9
		c0.7-0.4,1.3-0.4,1.9-0.2c0,0-3.2,1.8-4.7,5c-0.4,0.8-0.9,1.9-0.4,2.9c0.3,0.5,0.8,0.6,1.2,0.5c1.9-0.4,3.1-2.2,4-3.8
		c0.6-1.2,1.1-2.4,1.1-3.7c0-0.2,0-0.4,0-0.5c0.9-0.5,2.7,0.4,2.7,0.4c1.4,0.5,4.5,2.8,5.5,3.2c0.5-0.6,1.3-1.5,1.8-1.9l-0.7-0.4
		c-1.1-0.7-2.2-1.3-3.3-1.9c-2.5-1.4-4.6-0.9-5.6-0.5c-0.4,0.1-0.8,0.3-0.8,0.3c-0.8-0.8-2.1-0.8-3-0.5c-3.4,1-6.5,3.3-9.9,7.4
		c-2.5,3.2-4,6-4.8,8.7c-0.6,1.8-0.8,4.6,0.7,6.2c1.3,1.4,3,1.1,4.3,0.6c2.7-1.3,5-4.1,6.2-7.4C73.9,234.2,74.2,232.8,73.7,231.8
		L73.7,231.8z M44.3,228.7c0,0-0.5,1-0.5,1c-0.1,0.1-0.2,0-0.3,0l-0.2,0c-0.6-0.2-1.1-0.6-1.2-1.1c-0.2-1,0.6-1.7,1-2
		c0.4-0.2,0.9-0.4,1.2-0.1c0.2,0.2,0.3,0.5,0.3,0.8C44.6,227.7,44.5,228.2,44.3,228.7L44.3,228.7z M43.4,230.6
		C43.4,230.6,43.3,230.7,43.4,230.6c0,0.1-1,1.7-1,1.7c-0.6,0.8-1.4,1.8-2.3,2.3c-0.3,0.1-0.7,0.2-0.9-0.1c-0.4-0.5-0.2-1.2,0-1.8
		l0.1-0.2c0.5-1.4,1.3-2.6,2.1-3.7c0,0,0,0,0,0c0,0,0,0,0,0c0.5,0.9,1.4,1.4,2.1,1.6c0,0,0,0,0,0C43.4,230.5,43.4,230.6,43.4,230.6
		L43.4,230.6z M56,229.5c0.5-0.6,1.8-2.3,2.1-2.6c1.1-1,1.5-0.5,1.5-0.2c-1,1.8-2.2,3.9-3.3,5.7c0,0-0.4,0.5-0.4,0.5
		c-0.5,0.8-1,1.4-1.8,1.9c-0.1,0-0.3,0-0.4,0c-0.2-0.1-0.2-0.3-0.2-0.4C53.6,233.8,54.2,232,56,229.5L56,229.5z M44.8,225.4
		c-1.4-0.9-4.2,0.8-6.5,3.8c-2.1,2.7-2.9,5.8-2,7.3c1.4,1.7,4.1-0.8,5.2-2.1l0.1-0.2c0.8-0.8,1.4-1.8,1.9-2.8c0,0,0.5-0.9,0.6-0.9
		c0.3-0.1,0.7-0.2,1.2-0.3c0,0-1.7,2.9-1.5,4.3c0.1,0.4,0,2,1.6,2.5c2.1,0.3,3.7-1.2,5.1-2.7c0,0,0.2-0.2,0.4-0.4
		c0,0.1-0.1,0.3-0.1,0.3c-0.6,2.1,0.2,2.5,0.7,2.7c1.5,0.4,3.4-1.8,3.4-1.8c0,0.7-0.2,1.3,0.6,1.7c0.7,0.2,1.4-0.1,1.9-0.5
		c1.9-1.4,3.5-3.5,4.7-5.3h-0.8c0,0-2,2.9-3.3,3.5c0,0-0.2,0.1-0.4,0c-0.2-0.1-0.1-0.4,0-0.6c0,0,4.9-8.6,4.9-8.6h-2.3
		c0,0-0.3,0.4-0.3,0.4c0,0-0.1-0.1-0.1-0.1c-1.4-2-4.7,1.1-7.2,4.6c-0.9,1.4-2.2,2.9-3.4,4c0,0-1.9,1.7-2.6,0.5
		c-0.3-0.5-0.2-1.3,0-1.8c0.9-2.6,2.5-5,4.3-6.4c0.5-0.4,1.1-0.5,1.3-0.3c0.3,0.2,0.3,0.5,0.1,0.8c-0.4,0-0.8,0.1-1,0.4
		c-0.5,0.6-0.7,1.1-0.6,1.6c0.8,1.2,2.5-1.2,2.4-2.6c0-0.5-0.3-1-0.7-1.2c-0.6-0.4-1.5-0.3-2.1,0c-0.8,0.3-2.1,1.4-2.8,2.2
		c-0.9,1-2.5,2.2-3,2C44.9,229.3,46.2,226.5,44.8,225.4L44.8,225.4z M56.5,240.4c-2.7-1.8-6.5-2.1-12.5-0.4
		c-6.4,1.5-8.5,2.5-11.3,0.5c-1.1-0.9-1.5-2.5-1.2-4.7c0.7-3.6,2.5-7,5.7-10.9c1.8-2,3.4-3.7,5.6-4.4c1.7-0.4,1.5,0.9,1.3,1.1
		c-0.2,0-0.6,0-0.9,0.2c-0.2,0.2-0.8,0.7-0.9,1.5c0,1.2,1.2,0.9,1.7,0.3c0.6-0.7,1.4-2.1,0.7-3.4c-0.3-0.5-0.7-0.8-1.3-0.9
		c-2-0.1-3.9,0.8-5.6,1.9c-3.8,2.6-6.8,6.3-8.5,10.2c-1,2.4-1.9,5.8-0.5,8.6c1,1.9,3.2,3,5.7,2.8c1.8-0.2,4-0.8,5.4-1.1
		c1.5-0.4,8.9-2.9,11.4,1.5c0,0,0.8-1.6,2.9-1.6c1.7-0.2,4.1,0.5,5.9,1.8C59.5,242.6,57.9,241.3,56.5,240.4L56.5,240.4z"/>
</g>
<g>
	<g>
		<g>
			<path class="st1" d="M220.7,241.8c-7.3,0-13.2-5.9-13.2-13.2c0-7.3,5.9-13.2,13.2-13.2c7.3,0,13.2,5.9,13.2,13.2
				C233.9,235.9,228,241.8,220.7,241.8 M220.7,208.9c-10.9,0-19.7,8.8-19.7,19.7c0,10.9,8.8,19.7,19.7,19.7
				c10.9,0,19.7-8.8,19.7-19.7C240.4,217.7,231.6,208.9,220.7,208.9z"/>
			<path class="st1" d="M220.7,221.9c-3.7,0-6.8,3-6.8,6.8c0,3.7,3,6.8,6.8,6.8c3.7,0,6.8-3,6.8-6.8
				C227.5,224.9,224.4,221.9,220.7,221.9"/>
			<polyline class="st1" points="202.9,253.5 200.7,253.5 200.7,252.2 206.6,252.2 206.6,253.5 204.5,253.5 204.5,259.4 
				202.9,259.4 202.9,253.5 			"/>
			<path class="st1" d="M205.9,259.4h1.6l0.6-1.6h2.7l0.5,1.6h1.7l-2.7-7.3h-1.6L205.9,259.4 M209.5,254L209.5,254l0.9,2.7h-1.9
				L209.5,254z"/>
			<path class="st1" d="M213.7,259.4h1.6v-2.8h1.6c0.8,0,1.1,0.3,1.2,1.1c0.1,0.6,0.1,1.3,0.3,1.7h1.6c-0.3-0.4-0.3-1.3-0.3-1.7
				c-0.1-0.7-0.3-1.5-1.1-1.7v0c0.8-0.3,1.1-1,1.1-1.8c0-1.1-0.8-2-2.1-2h-3.9L213.7,259.4 M215.3,253.4h1.7c0.7,0,1.1,0.3,1.1,1
				c0,0.7-0.4,1-1.1,1h-1.7V253.4z"/>
			<path class="st1" d="M226.1,258.6c-0.6,0.7-1.3,1-2,1c-2.2,0-3.6-1.7-3.6-3.8c0-2.2,1.3-3.8,3.6-3.8c1.5,0,2.9,0.9,3.1,2.6h-1.5
				c-0.2-0.8-0.8-1.2-1.5-1.2c-1.4,0-2,1.2-2,2.5c0,1.2,0.5,2.4,2,2.4c1,0,1.6-0.6,1.7-1.6h-1.6v-1.2h3v3.9h-1L226.1,258.6"/>
			<polyline class="st1" points="228.3,252.2 233.8,252.2 233.8,253.5 229.9,253.5 229.9,255.1 233.4,255.1 233.4,256.3 
				229.9,256.3 229.9,258.1 233.8,258.1 233.8,259.4 228.3,259.4 228.3,252.2 			"/>
			<polyline class="st1" points="236.7,253.5 234.5,253.5 234.5,252.2 240.5,252.2 240.5,253.5 238.3,253.5 238.3,259.4 
				236.7,259.4 236.7,253.5 			"/>
		</g>
	</g>
</g>
</svg>
