<?xml version="1.0" encoding="utf-8"?>
<!-- Generator: Adobe Illustrator 24.0.3, SVG Export Plug-In . SVG Version: 6.00 Build 0)  -->
<svg version="1.1" id="Layer_1" xmlns="http://www.w3.org/2000/svg" xmlns:xlink="http://www.w3.org/1999/xlink" x="0px" y="0px"
	 viewBox="0 0 55 50" style="enable-background:new 0 0 55 50;" xml:space="preserve">
<style type="text/css">
	.st0{fill-rule:evenodd;clip-rule:evenodd;fill:#4D7FA2;}
	.st1{fill-rule:evenodd;clip-rule:evenodd;fill:#6FA6C4;}
</style>
<title>Group 7 Copy</title>
<desc>Created with Sketch.</desc>
<g id="Page-1">
	<g id="Concept-2-Copy-2" transform="translate(-932.000000, -2497.000000)">
		<g id="Group-7-Copy" transform="translate(928.000000, 2490.000000)">
			<path id="Triangle-Copy_1_" class="st0" d="M27.2,13l1.5-2.8c1.5-2.9,5-4,7.9-2.6c1.1,0.6,2,1.5,2.6,2.6l19.2,38.3
				c1.5,2.9,0.3,6.4-2.6,7.9C55,56.8,54,57,53.1,57H50"/>
			<path id="Triangle" class="st1" d="M23.5,27.1l15,29.9H10.8C7,57,4,54,4,50.2c0-1.1,0.3-2.1,0.7-3l10.1-20
				c1.2-2.4,4.1-3.4,6.5-2.1C22.3,25.3,23,26.1,23.5,27.1z"/>
		</g>
	</g>
</g>
</svg>
