<?xml version="1.0" encoding="utf-8"?>
<!-- Generator: Adobe Illustrator 24.2.0, SVG Export Plug-In . SVG Version: 6.00 Build 0)  -->
<svg version="1.1" id="Layer_1" xmlns="http://www.w3.org/2000/svg" xmlns:xlink="http://www.w3.org/1999/xlink" x="0px" y="0px"
	 viewBox="0 0 54.6 49.7" style="enable-background:new 0 0 54.6 49.7;" xml:space="preserve">
<style type="text/css">
	.st0{fill-rule:evenodd;clip-rule:evenodd;fill:#B5D1DD;}
	.st1{fill-rule:evenodd;clip-rule:evenodd;fill:#176E99;}
</style>
<g id="Layer_2_1_">
	<g id="Layer_28">
		<g id="Page-1">
			<g id="Concept-2-Copy-2">
				<g id="Group-7-Copy">
					<path id="Triangle-Copy" class="st0" d="M23,6l1.5-2.8c1.5-2.9,5-4,7.8-2.6c1.1,0.6,2,1.5,2.6,2.6L54,41.3
						c1.4,2.9,0.3,6.3-2.6,7.8c0,0,0,0,0,0c-0.8,0.4-1.7,0.6-2.6,0.6h-3.1"/>
					<path id="Triangle" class="st1" d="M19.4,20l14.9,29.7H6.8C3,49.7,0,46.7,0,43c0,0,0-0.1,0-0.1c0-1,0.2-2.1,0.7-3l10-19.9
						c1.1-2.3,3.9-3.3,6.3-2.2c0.1,0,0.1,0.1,0.2,0.1C18.1,18.3,19,19,19.4,20z"/>
				</g>
			</g>
		</g>
	</g>
</g>
</svg>
