<?xml version="1.0" encoding="utf-8"?>
<!-- Generator: Adobe Illustrator 24.0.3, SVG Export Plug-In . SVG Version: 6.00 Build 0)  -->
<svg width="55.05px" height="50px" version="1.1" id="Layer_1" xmlns="http://www.w3.org/2000/svg" xmlns:xlink="http://www.w3.org/1999/xlink" x="0px" y="0px"
	 viewBox="0 0 56.7 51.5" style="enable-background:new 0 0 56.7 51.5;" xml:space="preserve">
<style type="text/css">
	.st0{fill-rule:evenodd;clip-rule:evenodd;fill:#BAE7CC;}
	.st1{fill-rule:evenodd;clip-rule:evenodd;fill:#5AC987;}
</style>
<title>Group 7 Copy</title>
<desc>Created with Sketch.</desc>
<g id="Page-1">
	<g id="Concept-2-Copy-2" transform="translate(-932.000000, -2497.000000)">
		<g id="Group-7-Copy" transform="translate(928.000000, 2490.000000)">
			<path id="Triangle-Copy_1_" class="st0" d="M27.9,13.2l1.5-2.9c1.5-3,5.1-4.1,8.1-2.7c1.1,0.6,2.1,1.5,2.7,2.7L60,49.8
				c1.5,3,0.3,6.6-2.7,8.1c-0.8,0.4-1.8,0.6-2.7,0.6h-3.2"/>
			<path id="Triangle" class="st1" d="M24.1,27.7l15.5,30.8H11c-3.9,0-7-3.1-7-7c0-1.1,0.3-2.2,0.7-3.1l10.4-20.6
				c1.2-2.5,4.2-3.5,6.7-2.2C22.8,25.9,23.6,26.7,24.1,27.7z"/>
		</g>
	</g>
</g>
</svg>
