<svg width="55.05px" height="50px" id="Layer_1" data-name="Layer 1" xmlns="http://www.w3.org/2000/svg" viewBox="0 0 55 50"><defs><style>.cls-1{fill:#fff;fill-rule:evenodd;}</style></defs><title>triangles-icon-white</title><g id="Page-1"><g id="Concept-2-Copy-2"><g id="Group-7-Copy"><path id="Triangle-Copy" class="cls-1" d="M23.2,6,24.66,3.2A5.93,5.93,0,0,1,32.53.58,6.36,6.36,0,0,1,35.15,3.2L54.37,41.55a5.84,5.84,0,0,1-2.62,7.87,6.07,6.07,0,0,1-2.62.58H46" transform="translate(0 0)"/><path id="Triangle" class="cls-1" d="M19.52,20.1l15,29.9H6.8A6.76,6.76,0,0,1,0,43.2a7.63,7.63,0,0,1,.68-3l10.1-20a4.74,4.74,0,0,1,6.5-2.13A3.86,3.86,0,0,1,19.52,20.1Z" transform="translate(0 0)"/></g></g></g></svg>
